<mxfile host="Electron" modified="2024-06-25T01:31:59.310Z" agent="Mozilla/5.0 (X11; Linux x86_64) AppleWebKit/537.36 (KHTML, like Gecko) draw.io/24.5.3 Chrome/124.0.6367.207 Electron/30.0.6 Safari/537.36" etag="jXdGn1wL7aWIYAlllBPN" version="24.5.3" type="device">
  <diagram name="Page-1" id="AxO9v9M0TeA0K1rZq6Ek">
    <mxGraphModel dx="1370" dy="843" grid="1" gridSize="10" guides="1" tooltips="1" connect="1" arrows="1" fold="1" page="1" pageScale="1" pageWidth="850" pageHeight="1100" math="0" shadow="0">
      <root>
        <mxCell id="0" />
        <mxCell id="1" parent="0" />
        <mxCell id="8IFb49gL-GTCindIC7Gf-1" value="Entity" style="whiteSpace=wrap;html=1;align=center;" parent="1" vertex="1">
          <mxGeometry x="430" y="420" width="100" height="40" as="geometry" />
        </mxCell>
        <mxCell id="xDwIzmIsZvG3GxMrLR4S-1" value="Maquininha" style="rounded=0;whiteSpace=wrap;html=1;" vertex="1" parent="1">
          <mxGeometry x="70" y="80" width="120" height="60" as="geometry" />
        </mxCell>
        <mxCell id="xDwIzmIsZvG3GxMrLR4S-2" value="Autorizador" style="shape=process;whiteSpace=wrap;html=1;backgroundOutline=1;" vertex="1" parent="1">
          <mxGeometry x="270" y="80" width="120" height="60" as="geometry" />
        </mxCell>
        <mxCell id="xDwIzmIsZvG3GxMrLR4S-3" value="" style="rhombus;whiteSpace=wrap;html=1;" vertex="1" parent="1">
          <mxGeometry x="460" y="70" width="80" height="80" as="geometry" />
        </mxCell>
        <mxCell id="xDwIzmIsZvG3GxMrLR4S-4" value="Aprovada" style="ellipse;whiteSpace=wrap;html=1;aspect=fixed;" vertex="1" parent="1">
          <mxGeometry x="630" y="70" width="80" height="80" as="geometry" />
        </mxCell>
        <mxCell id="xDwIzmIsZvG3GxMrLR4S-5" value="Reprovada" style="ellipse;whiteSpace=wrap;html=1;aspect=fixed;" vertex="1" parent="1">
          <mxGeometry x="630" y="210" width="80" height="80" as="geometry" />
        </mxCell>
        <mxCell id="xDwIzmIsZvG3GxMrLR4S-6" value="&lt;h1 style=&quot;margin-top: 0px;&quot;&gt;&lt;font style=&quot;font-size: 14px;&quot;&gt;Regras de autorização&lt;/font&gt;&lt;/h1&gt;&lt;p&gt;- o cartão existir;&lt;/p&gt;&lt;p&gt;- a senha do cartão for correta;&lt;/p&gt;&lt;p&gt;- o cartão possuir saldo disponível&lt;/p&gt;&lt;p&gt;&lt;br&gt;&lt;/p&gt;" style="text;html=1;whiteSpace=wrap;overflow=hidden;rounded=0;" vertex="1" parent="1">
          <mxGeometry x="350" y="190" width="180" height="150" as="geometry" />
        </mxCell>
        <mxCell id="xDwIzmIsZvG3GxMrLR4S-7" value="&lt;h1 style=&quot;margin-top: 0px;&quot;&gt;&lt;font style=&quot;font-size: 14px;&quot;&gt;Testes que serão realizados&lt;/font&gt;&lt;/h1&gt;&lt;p&gt;1. A criação de um cartão.&lt;/p&gt;&lt;p&gt;2. Verificação do saldo do cartão recém-criado.&lt;/p&gt;&lt;p&gt;3. Diversas transações, verificando o saldo em seguida, até que o saldo seja insuficiente.&lt;/p&gt;&lt;p&gt;4. Transação com senha inválida.&lt;/p&gt;&lt;p&gt;5. Transação com cartão inexistente.&lt;/p&gt;" style="text;html=1;whiteSpace=wrap;overflow=hidden;rounded=0;" vertex="1" parent="1">
          <mxGeometry x="40" y="400" width="290" height="210" as="geometry" />
        </mxCell>
      </root>
    </mxGraphModel>
  </diagram>
</mxfile>
